<svg width="129" height="129" viewBox="0 0 129 129" fill="none" xmlns="http://www.w3.org/2000/svg">
<path d="M14.21 32.5521C13.5045 32.5521 12.9502 31.9979 12.9502 31.2924V13.0762C12.9502 12.3707 13.5045 11.8164 14.21 11.8164H32.4262C33.1316 11.8164 33.6859 12.3707 33.6859 13.0762C33.6859 13.7816 33.1316 14.3359 32.4262 14.3359H15.4697V31.2924C15.4697 31.9727 14.8902 32.5521 14.21 32.5521ZM14.6131 89.4684C13.9328 89.4684 13.3533 88.9141 13.3533 88.2338L13.0762 70.0176C13.0762 69.3121 13.6305 68.7578 14.3107 68.7326H14.3359C15.0162 68.7326 15.5957 69.2869 15.5957 69.9672L15.8729 86.9236L32.8293 86.6465H32.8545C33.5348 86.6465 34.1143 87.2008 34.1143 87.8811C34.1143 88.5865 33.56 89.1408 32.8797 89.166L14.6131 89.4684C14.6383 89.4684 14.6131 89.4684 14.6131 89.4684ZM60.8969 107.533L57.2687 123.835L52.7588 119.325L39.2037 123.835L52.0281 102.444C54.3965 104.913 57.4703 106.727 60.8969 107.533ZM88.9393 123.835L75.3842 119.325L70.8742 123.835L67.3217 107.861C70.9246 107.407 74.2252 105.896 76.8455 103.653L88.9393 123.835ZM116.049 89.0652H97.8332C97.1277 89.0652 96.5734 88.5109 96.5734 87.8055C96.5734 87.1 97.1277 86.5457 97.8332 86.5457H114.79V69.5893C114.79 68.8838 115.344 68.3295 116.049 68.3295C116.755 68.3295 117.309 68.8838 117.309 69.5893V87.8055C117.309 88.4857 116.755 89.0652 116.049 89.0652ZM116.201 32.527C115.52 32.527 114.941 31.9727 114.941 31.2924L114.664 14.3359L97.7324 14.6131H97.7072C97.027 14.6131 96.4475 14.0588 96.4475 13.3785C96.4475 12.673 97.0018 12.1187 97.682 12.0936L115.898 11.8164C116.579 11.8164 117.158 12.3707 117.183 13.051L117.46 31.2672C117.46 31.9475 116.906 32.5018 116.201 32.527ZM104.762 34.7945H27.9162C27.2107 34.7945 26.6564 34.2402 26.6564 33.5348C26.6564 32.8293 27.2107 32.275 27.9162 32.275H104.762C105.467 32.275 106.022 32.8293 106.022 33.5348C106.022 34.2402 105.442 34.7945 104.762 34.7945Z" fill="#5C77FF"/>
<path d="M124.969 2.77148H5.16504C4.45957 2.77148 3.90527 3.32578 3.90527 4.03125V96.6996C3.90527 97.4051 4.45957 97.9594 5.16504 97.9594H47.468C48.375 99.9246 49.5844 101.739 51.1213 103.326C52.885 105.165 54.9762 106.627 57.2689 107.634C58.3523 108.113 59.4609 108.491 60.6199 108.768C62.0561 109.121 63.5678 109.272 65.0795 109.272C65.8857 109.272 66.692 109.222 67.473 109.121C71.2523 108.667 74.7797 107.105 77.6771 104.611C79.8187 102.797 81.532 100.504 82.691 97.9594H124.969C125.674 97.9594 126.229 97.4051 126.229 96.6996V4.03125C126.229 3.32578 125.674 2.77148 124.969 2.77148ZM81.8596 90.8039C81.7588 92.6936 81.3557 94.5076 80.6502 96.2461C79.6424 98.7404 78.0299 100.958 75.9891 102.721C73.4695 104.888 70.3957 106.223 67.1203 106.627C66.4652 106.702 65.7598 106.753 65.0543 106.753C63.8449 106.753 62.6607 106.627 61.5018 106.375C61.401 106.349 61.3002 106.324 61.1742 106.299C58.0248 105.543 55.1777 103.931 52.9102 101.562C51.4236 100 50.2395 98.2113 49.4332 96.2209C48.627 94.2053 48.1986 92.0889 48.1986 89.9221C48.1986 81.8344 53.9432 75.0568 61.5522 73.4695C62.6607 73.2176 63.8449 73.1168 65.0291 73.1168C74.301 73.1168 81.8596 80.6502 81.8596 89.9473C81.8848 90.2244 81.8848 90.5016 81.8596 90.8039ZM123.709 95.4398H83.6232C83.6232 95.4146 83.6232 95.3895 83.6484 95.3895C83.724 95.1375 83.7996 94.8856 83.85 94.6336C83.8752 94.558 83.8752 94.4824 83.9004 94.3816C83.9508 94.1801 84.0012 93.9785 84.0264 93.777C84.0516 93.7014 84.0516 93.6258 84.0768 93.5502C84.1272 93.273 84.1775 92.9959 84.2279 92.7188V92.6936C84.2783 92.4164 84.3035 92.1645 84.3287 91.8873C84.3287 91.8117 84.3539 91.7109 84.3539 91.6354C84.3791 91.4338 84.3791 91.2322 84.4043 91.0055C84.4043 90.9299 84.4043 90.8291 84.4295 90.7535C84.4295 90.4764 84.4547 90.1992 84.4547 89.8969C84.4547 79.2393 75.7875 70.5469 65.1047 70.5469C62.3584 70.5469 59.7633 71.1264 57.3949 72.1594C50.567 75.1324 45.7547 81.9604 45.7547 89.8969C45.7547 90.174 45.7547 90.4512 45.7799 90.7535C45.7799 90.8291 45.7799 90.9299 45.8051 91.0055C45.8303 91.207 45.8303 91.4086 45.8555 91.6102C45.8555 91.6857 45.8807 91.7865 45.8807 91.8621C45.9059 92.1141 45.9311 92.3912 45.9814 92.6432C45.9814 92.6684 45.9814 92.6684 45.9814 92.6936C46.0318 92.9707 46.0822 93.2479 46.1326 93.4998C46.1578 93.5754 46.1578 93.651 46.183 93.7518C46.2334 93.9533 46.2586 94.1549 46.309 94.3312C46.3342 94.4068 46.3594 94.5076 46.3594 94.5832C46.4098 94.8352 46.4854 95.0619 46.5609 95.3139C46.5609 95.3391 46.5861 95.3643 46.5861 95.3895H6.4248V5.29102H123.709V95.4398Z" fill="#354B87"/>
<path d="M65.0545 78.6348L68.3803 85.3619L75.8129 86.4453L70.4463 91.6859L71.7061 99.0682L65.0545 95.5912L58.4281 99.0682L59.6879 91.6859L54.3213 86.4453L61.7539 85.3619L65.0545 78.6348Z" fill="#5C77FF"/>
<path d="M97.9598 48.375H32.4268C31.7213 48.375 31.167 47.8207 31.167 47.1152C31.167 46.4098 31.7213 45.8555 32.4268 45.8555H97.985C98.6904 45.8555 99.2447 46.4098 99.2447 47.1152C99.2447 47.8207 98.6652 48.375 97.9598 48.375Z" fill="#92AAFF"/>
<path opacity="0.3" d="M91.308 62.2324H37.6924C36.9869 62.2324 36.4326 61.6781 36.4326 60.9727C36.4326 60.2672 36.9869 59.7129 37.6924 59.7129H91.308C92.0135 59.7129 92.5678 60.2672 92.5678 60.9727C92.5678 61.6781 92.0135 62.2324 91.308 62.2324Z" fill="#485EFF"/>
<path opacity="0.3" d="M81.8848 89.9221C81.8848 90.2244 81.8848 90.5016 81.8596 90.8039C81.7588 92.6936 81.3557 94.5076 80.6502 96.2461C79.6424 98.7404 78.0299 100.958 75.9891 102.721C73.4695 104.888 70.3957 106.223 67.1203 106.627C66.4652 106.702 65.7598 106.753 65.0543 106.753C63.8449 106.753 62.6607 106.627 61.5018 106.375C67.851 103.603 72.2853 97.2791 72.2853 89.8969C72.2853 82.565 67.9014 76.2662 61.6025 73.4695C62.7111 73.2176 63.8953 73.1168 65.0795 73.1168C74.3514 73.0916 81.8848 80.6502 81.8848 89.9221ZM124.44 64.5L123.709 5.29102H6.4248L5.29102 61.9805C5.29102 61.9805 11.8418 8.69238 65.1803 8.69238C120.686 8.69238 124.44 64.5 124.44 64.5Z" fill="#485EFF"/>
</svg>
