<svg width="481" height="322" viewBox="0 0 481 322" fill="none" xmlns="http://www.w3.org/2000/svg">
<g clip-path="url(#clip0_329_8300)">
<path d="M394.809 192.782C395.127 192.688 395.452 192.618 395.781 192.574L408.916 165.893L404.906 159.883L413.187 152.647L423.598 165.384L402.395 196.233C402.917 197.4 403.071 198.698 402.836 199.954C402.602 201.211 401.991 202.366 401.084 203.267C400.177 204.167 399.018 204.77 397.759 204.996C396.501 205.222 395.204 205.059 394.04 204.53C392.877 204.001 391.902 203.13 391.246 202.033C390.589 200.936 390.283 199.666 390.366 198.391C390.449 197.115 390.919 195.896 391.713 194.894C392.507 193.892 393.586 193.156 394.809 192.782V192.782Z" fill="#A0616A"/>
<path d="M417.23 156.334C417.051 156.522 416.846 156.684 416.621 156.814L403.182 164.602C402.859 164.79 402.501 164.908 402.13 164.949C401.759 164.991 401.383 164.955 401.026 164.845C400.67 164.734 400.34 164.55 400.058 164.305C399.777 164.06 399.549 163.76 399.389 163.422L392.853 149.617C392.575 149.036 392.515 148.375 392.684 147.753C392.853 147.132 393.241 146.592 393.775 146.232L402.105 140.567C402.626 140.214 403.253 140.053 403.879 140.112C404.505 140.172 405.091 140.448 405.535 140.893L417.179 152.575C417.674 153.072 417.956 153.742 417.966 154.444C417.976 155.145 417.712 155.823 417.23 156.334H417.23Z" fill="#CCCCCC"/>
<path d="M436.1 309.221L429.004 311.151L418.181 284.71L428.653 281.861L436.1 309.221Z" fill="#A0616A"/>
<path d="M423.384 310.504L437.068 306.781L439.412 315.395L417.113 321.461C416.805 320.329 416.723 319.149 416.871 317.986C417.02 316.823 417.396 315.701 417.979 314.684C418.561 313.666 419.338 312.773 420.266 312.056C421.193 311.339 422.253 310.811 423.384 310.504Z" fill="#2F2E41"/>
<path d="M375.443 314.634L368.09 314.634L364.591 286.278L375.444 286.279L375.443 314.634Z" fill="#A0616A"/>
<path d="M362.837 312.533H377.018V321.46H353.908C353.908 320.288 354.139 319.127 354.588 318.044C355.037 316.961 355.694 315.977 356.523 315.148C357.353 314.319 358.337 313.661 359.42 313.213C360.503 312.764 361.665 312.533 362.837 312.533Z" fill="#2F2E41"/>
<path d="M383.19 131.154C391.326 131.154 397.921 124.56 397.921 116.427C397.921 108.293 391.326 101.699 383.19 101.699C375.054 101.699 368.458 108.293 368.458 116.427C368.458 124.56 375.054 131.154 383.19 131.154Z" fill="#A0616A"/>
<path d="M374.993 294.417H364.944C364.257 294.416 363.597 294.154 363.096 293.683C362.595 293.213 362.292 292.57 362.248 291.885C359.254 244.298 361.005 210.162 367.76 184.46C367.789 184.347 367.826 184.237 367.869 184.129L368.407 182.784C368.606 182.282 368.951 181.852 369.399 181.549C369.846 181.247 370.373 181.086 370.913 181.087H391.577C391.966 181.087 392.351 181.171 392.705 181.334C393.059 181.496 393.373 181.734 393.626 182.03L396.433 185.304C396.488 185.367 396.539 185.432 396.588 185.501C409.245 203.145 420.587 237.641 433.723 284.007C433.916 284.681 433.84 285.403 433.508 286.021C433.177 286.639 432.617 287.103 431.948 287.315L421.149 290.769C420.529 290.965 419.86 290.931 419.262 290.674C418.665 290.418 418.18 289.955 417.895 289.371L389.872 231.263C389.676 230.857 389.354 230.525 388.955 230.315C388.555 230.106 388.099 230.031 387.653 230.102C387.208 230.172 386.797 230.384 386.481 230.706C386.165 231.028 385.962 231.443 385.901 231.89L377.667 292.084C377.577 292.73 377.256 293.321 376.765 293.749C376.274 294.178 375.645 294.415 374.993 294.417Z" fill="#2F2E41"/>
<path d="M395.3 185.543C395.272 185.543 395.244 185.543 395.215 185.542L370.115 184.75C369.47 184.732 368.853 184.482 368.376 184.047C367.899 183.612 367.595 183.02 367.519 182.379C364.337 156.63 373.063 149.732 376.963 147.962C377.289 147.815 377.571 147.586 377.783 147.298C377.994 147.01 378.127 146.672 378.17 146.317L378.507 143.618C378.565 143.141 378.749 142.689 379.041 142.307C385.155 134.389 393.503 131.854 397.935 131.047C398.295 130.983 398.664 130.992 399.02 131.074C399.375 131.157 399.711 131.31 400.005 131.526C400.3 131.742 400.548 132.016 400.733 132.33C400.919 132.645 401.038 132.994 401.085 133.356L401.591 137.231C401.642 137.601 401.79 137.95 402.018 138.245C414.769 154.91 400.564 179.516 397.587 184.279C397.344 184.666 397.006 184.985 396.606 185.206C396.207 185.427 395.757 185.543 395.3 185.543Z" fill="#CCCCCC"/>
<path d="M412.911 118.085C409.625 113.459 405.684 109.334 401.212 105.84C397.495 102.937 393.356 100.457 388.791 99.2704C384.225 98.084 379.183 98.286 375.018 100.499C370.852 102.712 366.546 107.11 366.519 111.826C366.511 113.341 366.896 115.391 368.389 115.128L368.82 115.186C372.421 114.459 376.021 113.732 379.621 113.005C381.154 118.325 382.688 123.644 384.221 128.964C384.544 130.085 384.978 131.339 386.042 131.817C387.045 132.268 388.204 131.843 389.218 131.42C389.385 131.35 390.819 128.133 390.819 128.133C390.855 128.033 390.917 127.943 390.999 127.875C391.081 127.806 391.179 127.761 391.285 127.743C391.39 127.726 391.498 127.737 391.598 127.775C391.698 127.813 391.786 127.877 391.852 127.96L392.704 129.024C392.867 129.228 393.091 129.373 393.343 129.437C393.596 129.501 393.862 129.482 394.103 129.382C399.974 126.932 405.845 124.481 411.716 122.031C412.527 121.693 413.434 121.25 413.669 120.403C413.895 119.592 413.399 118.771 412.911 118.085Z" fill="#2F2E41"/>
<path d="M480.4 322H299.864C299.705 322 299.553 321.937 299.44 321.824C299.328 321.712 299.265 321.559 299.265 321.4C299.265 321.241 299.328 321.089 299.44 320.976C299.553 320.864 299.705 320.801 299.864 320.801H480.4C480.559 320.801 480.712 320.864 480.824 320.976C480.937 321.089 481 321.241 481 321.4C481 321.559 480.937 321.712 480.824 321.824C480.712 321.937 480.559 322 480.4 322Z" fill="#3F3D56"/>
<path d="M382.525 228.557C382.118 228.555 381.721 228.424 381.392 228.181L378.662 226.198C378.436 226.033 378.162 225.944 377.882 225.944C377.601 225.944 377.328 226.033 377.102 226.198L374.371 228.181C374.042 228.421 373.646 228.549 373.239 228.549C372.832 228.549 372.435 228.421 372.106 228.182C371.777 227.942 371.531 227.605 371.406 227.218C371.28 226.831 371.28 226.414 371.405 226.027L372.448 222.819C372.536 222.552 372.536 222.265 372.449 221.998C372.362 221.732 372.193 221.499 371.966 221.335L369.236 219.352C368.907 219.112 368.661 218.775 368.536 218.388C368.41 218.001 368.41 217.584 368.536 217.197C368.662 216.81 368.907 216.473 369.236 216.234C369.565 215.995 369.962 215.866 370.369 215.866H373.743C374.024 215.866 374.297 215.778 374.524 215.613C374.751 215.448 374.92 215.216 375.006 214.949L376.049 211.74C376.175 211.353 376.42 211.016 376.749 210.777C377.078 210.538 377.475 210.409 377.882 210.409C378.289 210.409 378.686 210.538 379.015 210.777C379.344 211.016 379.589 211.353 379.715 211.74L380.758 214.949C380.844 215.216 381.013 215.448 381.24 215.613C381.467 215.778 381.74 215.866 382.02 215.866H385.395C385.802 215.866 386.199 215.995 386.528 216.234C386.857 216.473 387.102 216.81 387.228 217.197C387.354 217.584 387.354 218.001 387.228 218.388C387.102 218.775 386.857 219.112 386.528 219.352L383.798 221.335C383.571 221.499 383.401 221.731 383.315 221.998C383.228 222.265 383.228 222.552 383.316 222.819L384.358 226.027C384.489 226.414 384.491 226.832 384.365 227.22C384.239 227.608 383.991 227.945 383.658 228.181C383.33 228.423 382.933 228.555 382.525 228.557Z" fill="#6C63FF"/>
<path d="M392.959 222.141C393.73 221.601 394.373 220.897 394.843 220.081C395.313 219.265 395.598 218.356 395.679 217.418C395.759 216.479 395.633 215.535 395.309 214.651C394.985 213.766 394.47 212.964 393.802 212.3L398.465 156.012L384.583 157.921L384.319 212.61C383.278 213.806 382.711 215.342 382.727 216.927C382.743 218.513 383.339 220.037 384.404 221.212C385.469 222.387 386.928 223.131 388.505 223.302C390.082 223.473 391.666 223.06 392.959 222.141Z" fill="#A0616A"/>
<path d="M399.372 164.118C399.112 164.118 398.853 164.08 398.604 164.007L383.702 159.625C383.343 159.519 383.011 159.341 382.725 159.101C382.44 158.86 382.207 158.563 382.042 158.229C381.877 157.894 381.783 157.528 381.767 157.155C381.75 156.782 381.811 156.41 381.946 156.062L387.461 141.819C387.691 141.217 388.13 140.718 388.697 140.413C389.265 140.108 389.923 140.017 390.552 140.157L400.397 142.296C401.012 142.43 401.56 142.774 401.948 143.269C402.336 143.764 402.539 144.379 402.522 145.008L402.064 161.493C402.044 162.194 401.752 162.86 401.25 163.35C400.747 163.84 400.074 164.116 399.372 164.118H399.372Z" fill="#CCCCCC"/>
<path d="M259.108 234.454H4.1985C3.08537 234.453 2.01819 234.01 1.23109 233.223C0.44399 232.437 0.00124937 231.37 0 230.257V154.104C0.00124937 152.991 0.44399 151.924 1.23109 151.138C2.01819 150.351 3.08537 149.908 4.1985 149.907H259.108C260.221 149.908 261.288 150.351 262.075 151.138C262.862 151.924 263.305 152.991 263.306 154.104V230.257C263.305 231.37 262.862 232.437 262.075 233.223C261.288 234.01 260.221 234.453 259.108 234.454ZM4.1985 151.106C3.40342 151.107 2.64117 151.423 2.07896 151.985C1.51675 152.547 1.20049 153.309 1.19957 154.104V230.257C1.20049 231.052 1.51675 231.814 2.07896 232.376C2.64117 232.938 3.40342 233.254 4.1985 233.255H259.108C259.903 233.254 260.665 232.938 261.227 232.376C261.789 231.814 262.106 231.052 262.107 230.257V154.104C262.106 153.309 261.789 152.547 261.227 151.985C260.665 151.423 259.903 151.107 259.108 151.106H4.1985Z" fill="#3F3D56"/>
<path d="M115.744 266.52C115.244 266.518 114.758 266.357 114.356 266.06L111.011 263.631C110.734 263.428 110.399 263.319 110.055 263.319C109.712 263.319 109.377 263.428 109.099 263.631L105.755 266.06C105.351 266.353 104.866 266.511 104.367 266.511C103.868 266.511 103.383 266.353 102.979 266.06C102.576 265.767 102.276 265.354 102.122 264.88C101.967 264.406 101.967 263.895 102.121 263.421L103.399 259.491C103.506 259.164 103.506 258.812 103.4 258.485C103.294 258.158 103.087 257.874 102.808 257.672L99.4635 255.243C99.0602 254.95 98.7599 254.537 98.6058 254.063C98.4517 253.589 98.4517 253.078 98.6058 252.604C98.7599 252.13 99.0601 251.717 99.4635 251.424C99.8669 251.131 100.353 250.973 100.851 250.973H104.986C105.329 250.974 105.664 250.865 105.942 250.663C106.22 250.461 106.427 250.176 106.532 249.85L107.81 245.919C107.964 245.445 108.264 245.032 108.667 244.738C109.071 244.445 109.557 244.288 110.055 244.288C110.554 244.288 111.04 244.445 111.443 244.738C111.847 245.032 112.147 245.445 112.301 245.919L113.578 249.85C113.684 250.176 113.891 250.461 114.169 250.663C114.447 250.865 114.782 250.974 115.125 250.973H119.259C119.758 250.973 120.244 251.131 120.647 251.424C121.051 251.717 121.351 252.13 121.505 252.604C121.659 253.078 121.659 253.589 121.505 254.063C121.351 254.537 121.051 254.95 120.647 255.243L117.302 257.672C117.024 257.874 116.817 258.158 116.711 258.485C116.605 258.812 116.605 259.164 116.712 259.491L117.989 263.421C118.149 263.895 118.152 264.407 117.997 264.883C117.843 265.358 117.539 265.771 117.132 266.06C116.729 266.357 116.243 266.518 115.744 266.52Z" fill="#6C63FF"/>
<path d="M149.637 266.52C149.137 266.518 148.651 266.357 148.249 266.06L144.904 263.631C144.627 263.428 144.292 263.319 143.948 263.319C143.605 263.319 143.27 263.428 142.992 263.631L139.648 266.06C139.244 266.353 138.759 266.511 138.26 266.511C137.761 266.511 137.276 266.353 136.872 266.06C136.469 265.767 136.169 265.354 136.014 264.88C135.86 264.406 135.86 263.895 136.014 263.421L137.292 259.491C137.399 259.164 137.399 258.812 137.293 258.485C137.187 258.158 136.979 257.874 136.701 257.672L133.356 255.243C132.953 254.95 132.653 254.537 132.499 254.063C132.345 253.589 132.345 253.078 132.499 252.604C132.653 252.13 132.953 251.717 133.357 251.424C133.76 251.131 134.246 250.973 134.744 250.973H138.878C139.222 250.974 139.557 250.865 139.835 250.663C140.113 250.461 140.32 250.176 140.425 249.85L141.703 245.919C141.857 245.445 142.157 245.032 142.56 244.738C142.964 244.445 143.45 244.288 143.948 244.288C144.447 244.288 144.933 244.445 145.336 244.738C145.74 245.032 146.04 245.445 146.194 245.919L147.471 249.85C147.577 250.177 147.784 250.461 148.062 250.663C148.34 250.865 148.675 250.974 149.018 250.973H153.152C153.651 250.973 154.137 251.131 154.54 251.424C154.943 251.717 155.244 252.13 155.398 252.604C155.552 253.078 155.552 253.589 155.398 254.063C155.244 254.537 154.944 254.95 154.54 255.243L151.196 257.672C150.917 257.874 150.71 258.158 150.604 258.485C150.497 258.812 150.498 259.164 150.605 259.491L151.882 263.421C152.042 263.895 152.045 264.407 151.89 264.883C151.736 265.358 151.432 265.771 151.024 266.06C150.622 266.357 150.136 266.518 149.637 266.52Z" fill="#6C63FF"/>
<path d="M183.53 266.52C183.03 266.518 182.544 266.357 182.142 266.06L178.797 263.631C178.52 263.429 178.185 263.32 177.841 263.32C177.498 263.32 177.163 263.429 176.885 263.631L173.541 266.06C173.137 266.353 172.652 266.511 172.153 266.511C171.654 266.511 171.169 266.353 170.765 266.06C170.362 265.767 170.062 265.354 169.908 264.88C169.753 264.406 169.753 263.895 169.907 263.421L171.185 259.491C171.292 259.164 171.292 258.812 171.186 258.485C171.08 258.158 170.873 257.874 170.594 257.672L167.25 255.243C166.846 254.95 166.546 254.537 166.392 254.063C166.238 253.589 166.238 253.078 166.392 252.604C166.546 252.13 166.846 251.717 167.25 251.424C167.653 251.131 168.139 250.973 168.637 250.973H172.772C173.115 250.974 173.45 250.865 173.728 250.663C174.006 250.461 174.213 250.176 174.318 249.85L175.596 245.919C175.75 245.445 176.05 245.032 176.453 244.738C176.857 244.445 177.343 244.288 177.841 244.288C178.34 244.288 178.826 244.445 179.229 244.738C179.633 245.032 179.933 245.445 180.087 245.919L181.365 249.85C181.47 250.176 181.677 250.461 181.955 250.663C182.233 250.865 182.568 250.974 182.911 250.973H187.045C187.544 250.973 188.03 251.131 188.433 251.424C188.837 251.717 189.137 252.13 189.291 252.604C189.445 253.078 189.445 253.589 189.291 254.063C189.137 254.537 188.837 254.95 188.433 255.243L185.089 257.672C184.81 257.874 184.603 258.158 184.497 258.485C184.391 258.812 184.391 259.164 184.498 259.491L185.775 263.421C185.935 263.895 185.938 264.407 185.783 264.883C185.629 265.358 185.325 265.771 184.918 266.06C184.516 266.357 184.029 266.518 183.53 266.52Z" fill="#6C63FF"/>
<path d="M217.423 266.52C216.923 266.518 216.437 266.357 216.035 266.06L212.69 263.631C212.413 263.428 212.078 263.319 211.734 263.319C211.391 263.319 211.056 263.428 210.778 263.631L207.434 266.06C207.03 266.353 206.544 266.511 206.046 266.511C205.547 266.511 205.061 266.353 204.658 266.06C204.255 265.767 203.954 265.354 203.8 264.88C203.646 264.406 203.646 263.895 203.8 263.421L205.078 259.491C205.185 259.164 205.185 258.812 205.079 258.485C204.972 258.159 204.765 257.874 204.487 257.673L201.142 255.243C200.739 254.95 200.439 254.537 200.284 254.063C200.13 253.589 200.13 253.078 200.285 252.604C200.439 252.13 200.739 251.717 201.142 251.424C201.546 251.131 202.031 250.973 202.53 250.973H206.664C207.008 250.974 207.343 250.865 207.621 250.663C207.899 250.461 208.105 250.176 208.211 249.85L209.488 245.919C209.642 245.445 209.943 245.031 210.346 244.738C210.749 244.445 211.235 244.288 211.734 244.288C212.233 244.288 212.718 244.445 213.122 244.738C213.525 245.031 213.825 245.445 213.98 245.919L215.257 249.85C215.363 250.176 215.569 250.461 215.847 250.663C216.125 250.865 216.46 250.974 216.804 250.973H220.938C221.437 250.973 221.922 251.131 222.326 251.424C222.729 251.717 223.029 252.13 223.183 252.604C223.337 253.078 223.337 253.589 223.183 254.063C223.029 254.537 222.729 254.95 222.326 255.243L218.981 257.672C218.703 257.874 218.496 258.158 218.389 258.485C218.283 258.812 218.284 259.164 218.39 259.491L219.668 263.421C219.828 263.895 219.831 264.407 219.676 264.883C219.522 265.358 219.218 265.771 218.81 266.06C218.408 266.357 217.922 266.518 217.423 266.52Z" fill="#6C63FF"/>
<path d="M239.939 266.752C239.39 266.75 238.856 266.574 238.415 266.248C237.967 265.93 237.633 265.477 237.463 264.954C237.294 264.432 237.297 263.869 237.472 263.349L238.75 259.418C238.841 259.138 238.842 258.837 238.751 258.557C238.66 258.277 238.482 258.033 238.244 257.86L234.899 255.431C234.456 255.109 234.126 254.655 233.957 254.134C233.787 253.614 233.787 253.053 233.957 252.532C234.126 252.011 234.456 251.557 234.899 251.236C235.342 250.914 235.876 250.74 236.423 250.74H240.557C240.852 250.741 241.139 250.648 241.377 250.475C241.615 250.302 241.793 250.058 241.883 249.777L243.161 245.847C243.33 245.326 243.66 244.872 244.103 244.55C244.546 244.229 245.08 244.055 245.627 244.055C246.175 244.055 246.709 244.229 247.152 244.55C247.595 244.872 247.925 245.326 248.094 245.847L249.371 249.777C249.462 250.058 249.639 250.302 249.877 250.475C250.115 250.648 250.403 250.741 250.697 250.74H254.831C255.379 250.74 255.913 250.914 256.356 251.236C256.799 251.557 257.129 252.011 257.298 252.532C257.467 253.053 257.467 253.614 257.298 254.134C257.129 254.655 256.799 255.109 256.356 255.431L253.011 257.86C252.772 258.033 252.595 258.277 252.504 258.557C252.413 258.837 252.413 259.138 252.505 259.418L253.782 263.349C253.951 263.87 253.951 264.431 253.782 264.951C253.613 265.472 253.283 265.926 252.84 266.248C252.397 266.57 251.863 266.743 251.315 266.743C250.768 266.743 250.234 266.57 249.791 266.248L246.447 263.819C246.209 263.645 245.922 263.552 245.627 263.552C245.333 263.552 245.046 263.645 244.808 263.819L241.463 266.248C241.021 266.574 240.488 266.75 239.939 266.752ZM245.627 262.352C246.175 262.352 246.709 262.526 247.151 262.848L250.496 265.278C250.734 265.451 251.021 265.544 251.315 265.544C251.61 265.544 251.897 265.451 252.135 265.278C252.373 265.105 252.55 264.861 252.641 264.581C252.732 264.301 252.732 264 252.641 263.72L251.364 259.789C251.193 259.268 251.193 258.707 251.362 258.186C251.532 257.665 251.862 257.211 252.306 256.89L255.65 254.461C255.889 254.288 256.066 254.044 256.157 253.764C256.248 253.484 256.248 253.182 256.157 252.903C256.066 252.623 255.889 252.379 255.65 252.206C255.412 252.033 255.126 251.94 254.831 251.94H250.697C250.149 251.941 249.615 251.768 249.172 251.446C248.728 251.124 248.399 250.669 248.23 250.148L246.953 246.217C246.862 245.938 246.685 245.694 246.446 245.521C246.208 245.348 245.922 245.254 245.627 245.254C245.333 245.254 245.046 245.348 244.808 245.521C244.57 245.694 244.392 245.938 244.301 246.217L243.024 250.148C242.855 250.669 242.526 251.124 242.083 251.446C241.639 251.768 241.105 251.941 240.557 251.94H236.423C236.129 251.94 235.842 252.033 235.604 252.206C235.366 252.379 235.188 252.623 235.097 252.903C235.006 253.182 235.006 253.484 235.097 253.764C235.188 254.044 235.366 254.288 235.604 254.461L238.949 256.89C239.392 257.211 239.723 257.665 239.892 258.186C240.061 258.707 240.061 259.268 239.891 259.789L238.613 263.72C238.522 264 238.522 264.301 238.613 264.581C238.704 264.861 238.881 265.105 239.119 265.278C239.358 265.451 239.644 265.544 239.939 265.544C240.233 265.544 240.52 265.451 240.758 265.278L244.103 262.848C244.546 262.526 245.079 262.352 245.627 262.352Z" fill="#3F3D56"/>
<path d="M32.9885 167.896C31.9545 167.896 30.9628 168.306 30.2317 169.037C29.5006 169.768 29.0898 170.759 29.0898 171.793C29.0898 172.827 29.5006 173.818 30.2317 174.549C30.9628 175.28 31.9545 175.691 32.9885 175.691H230.318C231.352 175.691 232.344 175.28 233.075 174.549C233.806 173.818 234.217 172.827 234.217 171.793C234.217 170.759 233.806 169.768 233.075 169.037C232.344 168.306 231.352 167.896 230.318 167.896H32.9885Z" fill="#CCCCCC"/>
<path d="M32.9885 188.283C31.9545 188.283 30.9628 188.694 30.2317 189.425C29.5006 190.156 29.0898 191.147 29.0898 192.181C29.0898 193.214 29.5006 194.206 30.2317 194.937C30.9628 195.668 31.9545 196.078 32.9885 196.078H230.318C231.352 196.078 232.344 195.668 233.075 194.937C233.806 194.206 234.217 193.214 234.217 192.181C234.217 191.147 233.806 190.156 233.075 189.425C232.344 188.694 231.352 188.283 230.318 188.283H32.9885Z" fill="#CCCCCC"/>
<path d="M32.9885 208.67C31.9545 208.67 30.9628 209.081 30.2317 209.812C29.5006 210.543 29.0898 211.534 29.0898 212.568C29.0898 213.602 29.5006 214.593 30.2317 215.324C30.9628 216.055 31.9545 216.466 32.9885 216.466H230.318C231.352 216.466 232.344 216.055 233.075 215.324C233.806 214.593 234.217 213.602 234.217 212.568C234.217 211.534 233.806 210.543 233.075 209.812C232.344 209.081 231.352 208.67 230.318 208.67H32.9885Z" fill="#CCCCCC"/>
<path d="M32.9885 167.896C31.9545 167.896 30.9628 168.306 30.2317 169.037C29.5006 169.768 29.0898 170.759 29.0898 171.793C29.0898 172.827 29.5006 173.818 30.2317 174.549C30.9628 175.28 31.9545 175.691 32.9885 175.691H230.318C231.352 175.691 232.344 175.28 233.075 174.549C233.806 173.818 234.217 172.827 234.217 171.793C234.217 170.759 233.806 169.768 233.075 169.037C232.344 168.306 231.352 167.896 230.318 167.896H32.9885Z" fill="#CCCCCC"/>
<path d="M32.9885 188.283C31.9545 188.283 30.9628 188.694 30.2317 189.425C29.5006 190.156 29.0898 191.147 29.0898 192.181C29.0898 193.214 29.5006 194.206 30.2317 194.937C30.9628 195.668 31.9545 196.078 32.9885 196.078H230.318C231.352 196.078 232.344 195.668 233.075 194.937C233.806 194.206 234.217 193.214 234.217 192.181C234.217 191.147 233.806 190.156 233.075 189.425C232.344 188.694 231.352 188.283 230.318 188.283H32.9885Z" fill="#CCCCCC"/>
<path d="M32.9885 208.67C31.9545 208.67 30.9628 209.081 30.2317 209.812C29.5006 210.543 29.0898 211.534 29.0898 212.568C29.0898 213.602 29.5006 214.593 30.2317 215.324C30.9628 216.055 31.9545 216.466 32.9885 216.466H230.318C231.352 216.466 232.344 216.055 233.075 215.324C233.806 214.593 234.217 213.602 234.217 212.568C234.217 211.534 233.806 210.543 233.075 209.812C232.344 209.081 231.352 208.67 230.318 208.67H32.9885Z" fill="#CCCCCC"/>
<path d="M259.108 84.5475H4.1985C3.08537 84.5462 2.01819 84.1036 1.23109 83.3167C0.44399 82.5298 0.00124937 81.4629 0 80.3501V4.19739C0.00124937 3.08456 0.44399 2.01766 1.23109 1.23077C2.01819 0.443873 3.08537 0.00124904 4.1985 0H259.108C260.221 0.00124745 261.288 0.443873 262.075 1.23077C262.862 2.01766 263.305 3.08456 263.306 4.19739V80.3501C263.305 81.4629 262.862 82.5298 262.075 83.3167C261.288 84.1036 260.221 84.5462 259.108 84.5475ZM4.1985 1.19926C3.40342 1.20018 2.64117 1.51634 2.07896 2.0784C1.51675 2.64046 1.20049 3.40252 1.19957 4.19739V80.3501C1.20049 81.145 1.51675 81.907 2.07896 82.4691C2.64117 83.0311 3.40342 83.3473 4.1985 83.3482H259.108C259.903 83.3473 260.665 83.0312 261.227 82.4691C261.789 81.907 262.106 81.145 262.107 80.3501V4.19739C262.106 3.40252 261.789 2.64046 261.227 2.07839C260.665 1.51633 259.903 1.20016 259.108 1.19926H4.1985Z" fill="#3F3D56"/>
<path d="M115.744 116.613C115.244 116.611 114.758 116.45 114.356 116.153L111.011 113.724C110.734 113.521 110.399 113.412 110.055 113.412C109.712 113.412 109.377 113.521 109.099 113.724L105.755 116.153C105.351 116.446 104.866 116.604 104.367 116.604C103.868 116.604 103.383 116.446 102.979 116.153C102.576 115.861 102.276 115.447 102.122 114.973C101.967 114.499 101.967 113.989 102.121 113.515L103.399 109.584C103.506 109.257 103.506 108.905 103.4 108.578C103.294 108.252 103.087 107.967 102.808 107.766L99.4635 105.336C99.0602 105.043 98.7599 104.63 98.6058 104.156C98.4517 103.682 98.4517 103.171 98.6058 102.697C98.7599 102.223 99.0601 101.81 99.4635 101.517C99.8669 101.224 100.353 101.066 100.851 101.066H104.986C105.329 101.067 105.664 100.958 105.942 100.757C106.22 100.555 106.427 100.27 106.532 99.9429L107.81 96.0121C107.964 95.538 108.264 95.1248 108.667 94.8318C109.071 94.5387 109.557 94.3809 110.055 94.3809C110.554 94.3809 111.04 94.5387 111.443 94.8318C111.847 95.1248 112.147 95.538 112.301 96.0121L113.578 99.9429C113.684 100.27 113.891 100.555 114.169 100.757C114.447 100.958 114.782 101.067 115.125 101.066H119.259C119.758 101.066 120.244 101.224 120.647 101.517C121.051 101.81 121.351 102.223 121.505 102.697C121.659 103.171 121.659 103.682 121.505 104.156C121.351 104.63 121.051 105.043 120.647 105.336L117.302 107.766C117.024 107.967 116.817 108.252 116.711 108.578C116.605 108.905 116.605 109.257 116.712 109.584L117.989 113.515C118.149 113.988 118.152 114.501 117.997 114.976C117.843 115.451 117.539 115.864 117.132 116.153C116.729 116.45 116.243 116.611 115.744 116.613Z" fill="#6C63FF"/>
<path d="M149.637 116.613C149.137 116.611 148.651 116.45 148.249 116.153L144.904 113.724C144.627 113.521 144.292 113.412 143.948 113.412C143.605 113.412 143.27 113.521 142.992 113.724L139.648 116.153C139.244 116.446 138.759 116.604 138.26 116.604C137.761 116.604 137.276 116.446 136.872 116.153C136.469 115.861 136.169 115.447 136.014 114.973C135.86 114.499 135.86 113.989 136.014 113.515L137.292 109.584C137.399 109.257 137.399 108.905 137.293 108.578C137.187 108.252 136.979 107.967 136.701 107.766L133.356 105.336C132.953 105.043 132.653 104.63 132.499 104.156C132.345 103.682 132.345 103.171 132.499 102.697C132.653 102.223 132.953 101.81 133.357 101.517C133.76 101.224 134.246 101.066 134.744 101.066H138.878C139.222 101.067 139.557 100.958 139.835 100.757C140.113 100.555 140.32 100.27 140.425 99.9429L141.703 96.0121C141.857 95.538 142.157 95.1248 142.56 94.8317C142.964 94.5387 143.45 94.3809 143.948 94.3809C144.447 94.3809 144.933 94.5387 145.336 94.8317C145.74 95.1248 146.04 95.538 146.194 96.0121L147.471 99.9429C147.577 100.27 147.784 100.555 148.062 100.757C148.34 100.958 148.675 101.067 149.018 101.066H153.152C153.651 101.066 154.137 101.224 154.54 101.517C154.943 101.81 155.244 102.223 155.398 102.697C155.552 103.171 155.552 103.682 155.398 104.156C155.244 104.63 154.944 105.043 154.54 105.336L151.196 107.766C150.917 107.967 150.71 108.252 150.604 108.578C150.497 108.905 150.498 109.257 150.605 109.584L151.882 113.515C152.042 113.988 152.045 114.501 151.89 114.976C151.736 115.451 151.432 115.864 151.024 116.153C150.622 116.45 150.136 116.611 149.637 116.613Z" fill="#6C63FF"/>
<path d="M183.53 116.613C183.03 116.611 182.544 116.45 182.142 116.153L178.797 113.724C178.52 113.522 178.185 113.413 177.841 113.413C177.498 113.413 177.163 113.522 176.885 113.724L173.541 116.153C173.137 116.446 172.652 116.604 172.153 116.604C171.654 116.604 171.169 116.446 170.765 116.153C170.362 115.861 170.062 115.447 169.908 114.973C169.753 114.499 169.753 113.989 169.907 113.515L171.185 109.584C171.292 109.257 171.292 108.905 171.186 108.578C171.08 108.252 170.873 107.967 170.594 107.766L167.25 105.336C166.846 105.043 166.546 104.63 166.392 104.156C166.238 103.682 166.238 103.171 166.392 102.697C166.546 102.223 166.846 101.81 167.25 101.517C167.653 101.224 168.139 101.066 168.637 101.066H172.772C173.115 101.067 173.45 100.958 173.728 100.757C174.006 100.555 174.213 100.27 174.318 99.9429L175.596 96.0121C175.75 95.538 176.05 95.1248 176.453 94.8317C176.857 94.5387 177.343 94.3809 177.841 94.3809C178.34 94.3809 178.826 94.5387 179.229 94.8317C179.633 95.1248 179.933 95.538 180.087 96.0121L181.365 99.9429C181.47 100.27 181.677 100.555 181.955 100.757C182.233 100.958 182.568 101.067 182.911 101.066H187.045C187.544 101.066 188.03 101.224 188.433 101.517C188.837 101.81 189.137 102.223 189.291 102.697C189.445 103.171 189.445 103.682 189.291 104.156C189.137 104.63 188.837 105.043 188.433 105.336L185.089 107.766C184.81 107.967 184.603 108.252 184.497 108.578C184.391 108.905 184.391 109.257 184.498 109.584L185.775 113.515C185.935 113.988 185.938 114.501 185.783 114.976C185.629 115.451 185.325 115.864 184.918 116.153C184.516 116.45 184.029 116.611 183.53 116.613Z" fill="#6C63FF"/>
<path d="M239.939 116.846C239.39 116.843 238.856 116.667 238.415 116.341C237.967 116.024 237.633 115.57 237.463 115.048C237.294 114.526 237.297 113.963 237.472 113.442L238.75 109.512C238.841 109.232 238.842 108.93 238.751 108.65C238.66 108.37 238.482 108.126 238.244 107.954L234.899 105.524C234.456 105.202 234.126 104.748 233.957 104.228C233.787 103.707 233.787 103.146 233.957 102.625C234.126 102.104 234.456 101.651 234.899 101.329C235.342 101.007 235.876 100.834 236.423 100.834H240.557C240.852 100.834 241.139 100.741 241.377 100.568C241.615 100.395 241.793 100.151 241.883 99.8707L243.161 95.94C243.33 95.4193 243.66 94.9654 244.103 94.6436C244.546 94.3218 245.08 94.1484 245.627 94.1484C246.175 94.1484 246.709 94.3218 247.152 94.6436C247.595 94.9654 247.925 95.4193 248.094 95.94L249.371 99.8707C249.462 100.151 249.639 100.395 249.877 100.568C250.115 100.741 250.403 100.834 250.697 100.834H254.831C255.379 100.834 255.913 101.007 256.356 101.329C256.799 101.651 257.129 102.105 257.298 102.625C257.467 103.146 257.467 103.707 257.298 104.228C257.129 104.748 256.799 105.202 256.356 105.524L253.011 107.954C252.772 108.126 252.595 108.37 252.504 108.65C252.413 108.93 252.413 109.232 252.505 109.512L253.782 113.442C253.951 113.963 253.951 114.524 253.782 115.045C253.613 115.565 253.283 116.019 252.84 116.341C252.397 116.663 251.863 116.836 251.315 116.836C250.768 116.836 250.234 116.663 249.791 116.341L246.447 113.912C246.209 113.738 245.922 113.645 245.627 113.645C245.333 113.645 245.046 113.738 244.808 113.912L241.463 116.341C241.021 116.667 240.488 116.843 239.939 116.846ZM245.627 112.445C246.175 112.445 246.709 112.619 247.151 112.942L250.496 115.371C250.734 115.544 251.021 115.637 251.315 115.637C251.61 115.637 251.897 115.544 252.135 115.371C252.373 115.198 252.55 114.954 252.641 114.674C252.732 114.394 252.732 114.093 252.641 113.813L251.364 109.882C251.193 109.362 251.193 108.8 251.362 108.279C251.532 107.758 251.862 107.305 252.306 106.983L255.65 104.554C255.889 104.381 256.066 104.137 256.157 103.857C256.248 103.577 256.248 103.276 256.157 102.996C256.066 102.716 255.889 102.472 255.65 102.299C255.412 102.126 255.126 102.033 254.831 102.033H250.697C250.149 102.034 249.615 101.861 249.172 101.539C248.728 101.217 248.399 100.763 248.23 100.241L246.953 96.3107C246.862 96.0308 246.685 95.7869 246.446 95.6139C246.208 95.4409 245.922 95.3477 245.627 95.3477C245.333 95.3477 245.046 95.4409 244.808 95.6139C244.57 95.7869 244.392 96.0308 244.301 96.3107L243.024 100.241C242.855 100.763 242.526 101.217 242.083 101.539C241.639 101.861 241.105 102.034 240.557 102.033H236.423C236.129 102.033 235.842 102.126 235.604 102.299C235.366 102.472 235.188 102.716 235.097 102.996C235.006 103.276 235.006 103.577 235.097 103.857C235.188 104.137 235.366 104.381 235.604 104.554L238.949 106.983C239.392 107.305 239.723 107.758 239.892 108.279C240.061 108.8 240.061 109.362 239.891 109.882L238.613 113.813C238.522 114.093 238.522 114.394 238.613 114.674C238.704 114.954 238.881 115.198 239.119 115.371C239.358 115.544 239.644 115.637 239.939 115.637C240.233 115.637 240.52 115.544 240.758 115.371L244.103 112.942C244.546 112.619 245.079 112.445 245.627 112.445Z" fill="#3F3D56"/>
<path d="M205.751 116.749C205.203 116.747 204.669 116.571 204.227 116.245C203.779 115.927 203.446 115.474 203.276 114.952C203.106 114.429 203.109 113.866 203.285 113.346L204.562 109.415C204.654 109.136 204.654 108.834 204.563 108.554C204.472 108.274 204.295 108.03 204.056 107.857L200.711 105.428C200.268 105.106 199.938 104.652 199.769 104.131C199.6 103.611 199.6 103.05 199.769 102.529C199.938 102.008 200.268 101.554 200.711 101.233C201.154 100.911 201.688 100.737 202.236 100.737H206.37C206.664 100.738 206.951 100.645 207.19 100.472C207.428 100.299 207.605 100.055 207.695 99.7745L208.973 95.8438C209.142 95.3231 209.472 94.8693 209.915 94.5474C210.358 94.2256 210.892 94.0522 211.44 94.0522C211.987 94.0522 212.521 94.2256 212.964 94.5474C213.407 94.8693 213.737 95.3231 213.906 95.8438L215.184 99.7745C215.274 100.055 215.451 100.299 215.69 100.472C215.928 100.645 216.215 100.738 216.509 100.737H220.644C221.191 100.737 221.725 100.911 222.168 101.233C222.611 101.555 222.941 102.008 223.11 102.529C223.279 103.05 223.279 103.611 223.11 104.131C222.941 104.652 222.611 105.106 222.168 105.428L218.824 107.857C218.585 108.03 218.407 108.274 218.316 108.554C218.225 108.834 218.226 109.136 218.317 109.415L219.595 113.346C219.764 113.867 219.764 114.428 219.595 114.949C219.425 115.469 219.095 115.923 218.652 116.245C218.209 116.567 217.676 116.74 217.128 116.74C216.58 116.74 216.047 116.567 215.604 116.245L212.259 113.816C212.021 113.642 211.734 113.549 211.44 113.549C211.145 113.549 210.858 113.642 210.62 113.816L207.276 116.245C206.834 116.571 206.3 116.747 205.751 116.749ZM211.44 112.349C211.988 112.349 212.521 112.523 212.964 112.845L216.309 115.275C216.547 115.448 216.833 115.541 217.128 115.541C217.422 115.541 217.709 115.448 217.947 115.275C218.185 115.102 218.363 114.858 218.454 114.578C218.545 114.298 218.545 113.997 218.454 113.717L217.176 109.786C217.006 109.265 217.005 108.704 217.175 108.183C217.344 107.662 217.674 107.208 218.118 106.887L221.463 104.458C221.701 104.285 221.878 104.041 221.969 103.761C222.06 103.481 222.06 103.179 221.969 102.9C221.878 102.62 221.701 102.376 221.463 102.203C221.225 102.03 220.938 101.937 220.644 101.937H216.509C215.961 101.938 215.427 101.765 214.984 101.443C214.541 101.121 214.211 100.666 214.043 100.145L212.765 96.2145C212.674 95.9346 212.497 95.6906 212.259 95.5176C212.021 95.3446 211.734 95.2515 211.44 95.2515C211.145 95.2515 210.858 95.3446 210.62 95.5176C210.382 95.6906 210.205 95.9346 210.114 96.2145L208.836 100.145C208.668 100.666 208.338 101.121 207.895 101.443C207.452 101.765 206.918 101.938 206.37 101.937H202.236C201.941 101.937 201.655 102.03 201.416 102.203C201.178 102.376 201.001 102.62 200.91 102.9C200.819 103.179 200.819 103.481 200.91 103.761C201.001 104.041 201.178 104.285 201.416 104.458L204.761 106.887C205.205 107.208 205.535 107.662 205.705 108.183C205.874 108.704 205.873 109.265 205.703 109.786L204.425 113.717C204.334 113.997 204.335 114.298 204.425 114.578C204.516 114.858 204.694 115.102 204.932 115.275C205.17 115.448 205.457 115.541 205.751 115.541C206.046 115.541 206.332 115.448 206.571 115.275L209.915 112.845C210.358 112.523 210.892 112.349 211.44 112.349Z" fill="#3F3D56"/>
<path d="M32.9885 17.9888C31.9545 17.9888 30.9628 18.3994 30.2317 19.1303C29.5006 19.8613 29.0898 20.8526 29.0898 21.8863C29.0898 22.9201 29.5006 23.9114 30.2317 24.6424C30.9628 25.3733 31.9545 25.7839 32.9885 25.7839H230.318C231.352 25.7839 232.344 25.3733 233.075 24.6424C233.806 23.9114 234.217 22.9201 234.217 21.8863C234.217 20.8526 233.806 19.8613 233.075 19.1303C232.344 18.3994 231.352 17.9888 230.318 17.9888H32.9885Z" fill="#CCCCCC"/>
<path d="M32.9885 38.376C31.9545 38.376 30.9628 38.7866 30.2317 39.5176C29.5006 40.2485 29.0898 41.2399 29.0898 42.2736C29.0898 43.3073 29.5006 44.2986 30.2317 45.0296C30.9628 45.7605 31.9545 46.1711 32.9885 46.1711H230.318C231.352 46.1711 232.344 45.7605 233.075 45.0296C233.806 44.2986 234.217 43.3073 234.217 42.2736C234.217 41.2399 233.806 40.2485 233.075 39.5176C232.344 38.7866 231.352 38.376 230.318 38.376H32.9885Z" fill="#CCCCCC"/>
<path d="M32.9885 58.7637C31.9545 58.7637 30.9628 59.1743 30.2317 59.9052C29.5006 60.6362 29.0898 61.6275 29.0898 62.6613C29.0898 63.695 29.5006 64.6863 30.2317 65.4173C30.9628 66.1482 31.9545 66.5588 32.9885 66.5588H230.318C231.352 66.5588 232.344 66.1482 233.075 65.4173C233.806 64.6863 234.217 63.695 234.217 62.6613C234.217 61.6275 233.806 60.6362 233.075 59.9052C232.344 59.1743 231.352 58.7637 230.318 58.7637H32.9885Z" fill="#CCCCCC"/>
<path d="M32.9885 17.9888C31.9545 17.9888 30.9628 18.3994 30.2317 19.1303C29.5006 19.8613 29.0898 20.8526 29.0898 21.8863C29.0898 22.9201 29.5006 23.9114 30.2317 24.6424C30.9628 25.3733 31.9545 25.7839 32.9885 25.7839H230.318C231.352 25.7839 232.344 25.3733 233.075 24.6424C233.806 23.9114 234.217 22.9201 234.217 21.8863C234.217 20.8526 233.806 19.8613 233.075 19.1303C232.344 18.3994 231.352 17.9888 230.318 17.9888H32.9885Z" fill="#CCCCCC"/>
<path d="M32.9885 38.376C31.9545 38.376 30.9628 38.7866 30.2317 39.5176C29.5006 40.2485 29.0898 41.2399 29.0898 42.2736C29.0898 43.3073 29.5006 44.2986 30.2317 45.0296C30.9628 45.7605 31.9545 46.1711 32.9885 46.1711H230.318C231.352 46.1711 232.344 45.7605 233.075 45.0296C233.806 44.2986 234.217 43.3073 234.217 42.2736C234.217 41.2399 233.806 40.2485 233.075 39.5176C232.344 38.7866 231.352 38.376 230.318 38.376H32.9885Z" fill="#CCCCCC"/>
<path d="M32.9885 58.7637C31.9545 58.7637 30.9628 59.1743 30.2317 59.9052C29.5006 60.6362 29.0898 61.6275 29.0898 62.6613C29.0898 63.695 29.5006 64.6863 30.2317 65.4173C30.9628 66.1482 31.9545 66.5588 32.9885 66.5588H230.318C231.352 66.5588 232.344 66.1482 233.075 65.4173C233.806 64.6863 234.217 63.695 234.217 62.6613C234.217 61.6275 233.806 60.6362 233.075 59.9052C232.344 59.1743 231.352 58.7637 230.318 58.7637H32.9885Z" fill="#CCCCCC"/>
</g>
<defs>
<clipPath id="clip0_329_8300">
<rect width="481" height="322" fill="white"/>
</clipPath>
</defs>
</svg>
