<svg width="30" height="30" viewBox="0 0 30 30" fill="none" xmlns="http://www.w3.org/2000/svg">
<path d="M29.025 13.65H15.27V17.745H25.035C24.54 23.46 19.785 25.905 15.285 25.905C9.54004 25.905 4.50004 21.375 4.50004 15C4.50004 8.85 9.30004 4.095 15.3 4.095C19.935 4.095 22.65 7.05 22.65 7.05L25.5 4.08C25.5 4.08 21.84 0 15.15 0C6.63004 0 0.0450439 7.2 0.0450439 15C0.0450439 22.575 6.24004 30 15.375 30C23.4 30 29.25 24.495 29.25 16.365C29.25 14.64 29.025 13.65 29.025 13.65Z" fill="#9D78BD"/>
</svg>
