<svg width="666" height="318" viewBox="0 0 666 318" fill="none" xmlns="http://www.w3.org/2000/svg">
<g clip-path="url(#clip0_25_87)">
<path d="M520.241 47.7763H356.93V44.4158H282.879V47.7763H118.894C115.964 47.7763 113.154 48.9384 111.083 51.007C109.011 53.0756 107.847 55.8813 107.847 58.8067V282.079C107.847 285.004 109.011 287.81 111.083 289.878C113.154 291.947 115.964 293.109 118.894 293.109H520.241C523.171 293.109 525.981 291.947 528.053 289.878C530.125 287.81 531.289 285.004 531.289 282.079V58.8055C531.289 55.8802 530.125 53.0749 528.053 51.0066C525.981 48.9383 523.171 47.7763 520.241 47.7763Z" fill="#3F3D56"/>
<path d="M516.478 67.2681H122.658V289.075H516.478V67.2681Z" fill="#E6E6E6"/>
<path d="M499.911 78.998H139.36V270.722H499.911V78.998Z" fill="white"/>
<path d="M319.231 61.2196C321.462 61.2196 323.271 59.4139 323.271 57.1866C323.271 54.9592 321.462 53.1536 319.231 53.1536C317 53.1536 315.192 54.9592 315.192 57.1866C315.192 59.4139 317 61.2196 319.231 61.2196Z" fill="#9D78BD"/>
<path d="M542.346 285.042H503.912V282.277C503.912 282.132 503.854 281.992 503.751 281.889C503.648 281.787 503.508 281.729 503.362 281.729H490.185C490.039 281.729 489.899 281.787 489.796 281.889C489.693 281.992 489.636 282.132 489.636 282.277V285.042H481.4V282.277C481.4 282.132 481.342 281.992 481.239 281.889C481.136 281.787 480.996 281.729 480.851 281.729H467.673C467.528 281.729 467.388 281.787 467.285 281.889C467.182 281.992 467.124 282.132 467.124 282.277V285.042H458.888V282.277C458.888 282.132 458.831 281.992 458.728 281.889C458.625 281.787 458.485 281.729 458.339 281.729H445.162C445.016 281.729 444.876 281.787 444.773 281.889C444.67 281.992 444.612 282.132 444.612 282.277V285.042H436.377V282.277C436.377 282.132 436.319 281.992 436.216 281.889C436.113 281.787 435.973 281.729 435.828 281.729H422.651C422.505 281.729 422.365 281.787 422.262 281.889C422.159 281.992 422.102 282.132 422.102 282.277V285.042H413.865V282.277C413.865 282.132 413.807 281.992 413.704 281.889C413.601 281.787 413.462 281.729 413.316 281.729H400.139C399.994 281.729 399.854 281.787 399.751 281.889C399.648 281.992 399.59 282.132 399.59 282.277V285.042H391.354V282.277C391.354 282.132 391.296 281.992 391.193 281.889C391.09 281.787 390.95 281.729 390.805 281.729H377.63C377.484 281.729 377.345 281.787 377.242 281.889C377.139 281.992 377.081 282.132 377.081 282.277V285.042H368.842V282.277C368.842 282.132 368.784 281.992 368.681 281.889C368.578 281.787 368.439 281.729 368.293 281.729H265.07C264.924 281.729 264.785 281.787 264.682 281.889C264.579 281.992 264.521 282.132 264.521 282.277V285.042H256.285V282.277C256.285 282.132 256.227 281.992 256.124 281.889C256.021 281.787 255.882 281.729 255.736 281.729H242.558C242.413 281.729 242.273 281.787 242.17 281.889C242.067 281.992 242.009 282.132 242.009 282.277V285.042H233.774V282.277C233.774 282.132 233.716 281.992 233.613 281.889C233.51 281.787 233.37 281.729 233.224 281.729H220.047C219.902 281.729 219.762 281.787 219.659 281.889C219.556 281.992 219.498 282.132 219.498 282.277V285.042H211.262V282.277C211.262 282.132 211.204 281.992 211.101 281.889C210.998 281.787 210.858 281.729 210.713 281.729H197.536C197.39 281.729 197.251 281.787 197.148 281.889C197.045 281.992 196.987 282.132 196.987 282.277V285.042H188.752V282.277C188.752 282.132 188.694 281.992 188.591 281.889C188.488 281.787 188.349 281.729 188.203 281.729H175.024C174.879 281.729 174.739 281.787 174.636 281.889C174.533 281.992 174.475 282.132 174.475 282.277V285.042H166.24V282.277C166.24 282.132 166.182 281.992 166.079 281.889C165.976 281.787 165.836 281.729 165.69 281.729H152.513C152.367 281.729 152.227 281.787 152.124 281.889C152.021 281.992 151.964 282.132 151.964 282.277V285.042H143.728V282.277C143.728 282.132 143.67 281.992 143.567 281.889C143.464 281.787 143.324 281.729 143.179 281.729H129.999C129.853 281.729 129.713 281.787 129.61 281.889C129.507 281.992 129.449 282.132 129.449 282.277V285.042H104.195C100.701 285.042 97.3488 286.428 94.8776 288.896C92.4063 291.363 91.0179 294.71 91.0179 298.199V304.148C91.0179 307.638 92.4063 310.984 94.8776 313.451C97.3488 315.919 100.701 317.305 104.195 317.305H542.346C545.84 317.305 549.192 315.919 551.663 313.452C554.135 310.984 555.523 307.638 555.523 304.149V298.2C555.523 294.71 554.135 291.364 551.664 288.897C549.192 286.429 545.841 285.043 542.346 285.043V285.042Z" fill="#3F3D56"/>
<path d="M399.355 92.4451H239.916V259.781H399.355V92.4451Z" fill="#E6E6E6"/>
<path d="M666 316.747H0V318H666V316.747Z" fill="#E6E6E6"/>
<path d="M601.319 272.96C610.343 282.628 610.809 296.838 610.809 296.838C610.809 296.838 596.645 295.373 587.621 285.705C578.597 276.037 578.131 261.827 578.131 261.827C578.131 261.827 592.295 263.292 601.319 272.96Z" fill="#9D78BD"/>
<path d="M629.727 288.051C620.044 297.061 605.811 297.527 605.811 297.527C605.811 297.527 607.279 283.385 616.962 274.375C626.645 265.365 640.878 264.899 640.878 264.899C640.878 264.899 639.411 279.041 629.727 288.051Z" fill="#9D78BD"/>
<path d="M627.321 316.746H591.705C591.022 316.746 590.352 316.555 589.773 316.193C589.193 315.831 588.728 315.313 588.429 314.7L580.675 298.785C580.404 298.231 580.279 297.617 580.312 297.001C580.344 296.385 580.533 295.787 580.861 295.264C581.188 294.741 581.644 294.31 582.185 294.012C582.725 293.713 583.333 293.557 583.951 293.557H635.075C635.693 293.557 636.301 293.713 636.841 294.012C637.382 294.31 637.838 294.741 638.165 295.264C638.493 295.787 638.682 296.385 638.714 297.001C638.747 297.617 638.622 298.231 638.351 298.785L630.597 314.7C630.298 315.314 629.833 315.831 629.254 316.193C628.674 316.555 628.004 316.747 627.321 316.747L627.321 316.746Z" fill="#E5E5E5"/>
<path d="M38.2633 272.96C47.2873 282.628 47.7536 296.838 47.7536 296.838C47.7536 296.838 33.5894 295.373 24.5654 285.705C15.5415 276.037 15.0751 261.827 15.0751 261.827C15.0751 261.827 29.2393 263.292 38.2633 272.96Z" fill="#E5E5E5"/>
<path d="M58.6155 316.746H22.9999C22.3165 316.746 21.6468 316.555 21.0675 316.193C20.4881 315.831 20.0225 315.313 19.7238 314.7L11.9697 298.785C11.699 298.231 11.574 297.617 11.6065 297.001C11.639 296.385 11.828 295.787 12.1557 295.264C12.4834 294.741 12.939 294.31 13.4795 294.012C14.0201 293.713 14.6279 293.557 15.2458 293.557H66.3702C66.988 293.557 67.5958 293.713 68.1364 294.012C68.677 294.31 69.1326 294.741 69.4602 295.264C69.7879 295.787 69.9769 296.385 70.0095 297.001C70.042 297.617 69.917 298.231 69.6462 298.785L61.8921 314.7C61.5934 315.314 61.1278 315.831 60.5485 316.193C59.9691 316.555 59.2995 316.747 58.6161 316.747L58.6155 316.746Z" fill="#E5E5E5"/>
<path d="M338.873 139.815C350.576 139.815 360.062 130.343 360.062 118.658C360.062 106.974 350.576 97.502 338.873 97.502C327.17 97.502 317.683 106.974 317.683 118.658C317.683 130.343 327.17 139.815 338.873 139.815Z" fill="#A0616A"/>
<path d="M290.119 260.126L303.803 174.116C304.53 169.543 306.225 165.177 308.774 161.309C311.323 157.441 314.668 154.159 318.586 151.681C322.504 149.204 326.905 147.588 331.497 146.942C336.089 146.295 340.767 146.632 345.218 147.931C353.001 150.178 359.666 155.242 363.91 162.133C368.153 169.024 369.672 177.247 368.168 185.196L353.856 262.007L290.119 260.126Z" fill="#9D78BD"/>
<path d="M344.723 275.515C345.781 274.818 346.674 273.897 347.337 272.817C348 271.738 348.418 270.527 348.562 269.268C348.705 268.01 348.571 266.736 348.168 265.535C347.765 264.335 347.103 263.237 346.23 262.319L360.375 234.969L344.445 236.666L333.454 262.379C332.014 263.948 331.198 265.99 331.162 268.118C331.126 270.247 331.872 272.315 333.259 273.932C334.646 275.549 336.578 276.603 338.69 276.895C340.802 277.186 342.948 276.696 344.722 275.516L344.723 275.515Z" fill="#A0616A"/>
<path d="M347.752 257.495C346.97 257.385 346.24 257.039 345.659 256.504L340.247 251.51C339.662 250.968 339.259 250.26 339.09 249.482C338.922 248.703 338.997 247.892 339.305 247.157L350.122 221.558L348.587 170.978C349.036 167.697 350.771 164.728 353.412 162.724C356.053 160.72 359.383 159.846 362.67 160.294C365.956 160.741 368.93 162.474 370.937 165.111C372.944 167.748 373.819 171.073 373.371 174.354L375.995 206.15C376.793 215.8 374.052 225.41 368.284 233.194L351.416 255.963C351.091 256.4 350.678 256.765 350.203 257.032C349.728 257.3 349.202 257.465 348.659 257.516C348.357 257.545 348.053 257.538 347.752 257.495Z" fill="#9D78BD"/>
<path d="M216.848 107.132C217.079 108.377 217.58 109.556 218.317 110.587C219.054 111.618 220.008 112.474 221.112 113.097C222.217 113.72 223.444 114.093 224.709 114.191C225.973 114.289 227.244 114.108 228.431 113.663L248.141 137.332L252.786 122.023L233.357 101.893C232.471 99.9581 230.906 98.4137 228.957 97.5516C227.008 96.6895 224.811 96.5693 222.78 97.2139C220.749 97.8584 219.024 99.223 217.931 101.05C216.838 102.877 216.453 105.041 216.849 107.132H216.848Z" fill="#A0616A"/>
<path d="M232.288 116.942C232.695 116.266 233.298 115.73 234.018 115.404L240.735 112.376C241.463 112.049 242.273 111.954 243.057 112.103C243.841 112.252 244.56 112.637 245.117 113.207L264.51 133.133L311.759 151.443C313.172 152.28 314.406 153.386 315.391 154.7C316.375 156.013 317.091 157.507 317.497 159.097C317.903 160.687 317.991 162.341 317.756 163.965C317.522 165.588 316.969 167.15 316.13 168.56C315.291 169.971 314.181 171.202 312.865 172.184C311.549 173.166 310.052 173.88 308.46 174.284C306.867 174.688 305.21 174.775 303.584 174.54C301.958 174.305 300.395 173.752 298.982 172.913L268.635 162.928C259.423 159.899 251.627 153.632 246.697 145.294L232.275 120.908C231.998 120.439 231.823 119.917 231.761 119.376C231.7 118.835 231.753 118.287 231.917 117.768C232.008 117.479 232.133 117.202 232.29 116.943L232.288 116.942Z" fill="#9D78BD"/>
<path opacity="0.1" d="M356.06 192.019L355.198 219.583L339.305 247.159L352.575 216.431L356.06 192.019Z" fill="black"/>
<path d="M324.523 108.054C326.709 110.637 330.407 111.365 333.819 111.664C340.749 112.271 350.825 111.288 357.596 109.726C358.08 114.403 356.762 119.446 359.521 123.293C360.814 118.635 361.566 113.844 361.762 109.014C361.846 106.946 361.813 104.8 360.97 102.899C360.127 100.997 358.289 99.3836 356.171 99.3666C357.744 98.1752 359.587 97.3887 361.536 97.0766L354.832 93.7129L356.554 91.948L344.417 91.2066L347.932 88.9767C342.641 88.2515 337.289 88.0835 331.962 88.4753C329.489 88.6571 326.903 89.0049 324.899 90.4358C322.896 91.8666 321.738 94.71 322.982 96.8108C321.424 97.0662 319.958 97.7143 318.721 98.6938C317.485 99.6733 316.519 100.952 315.916 102.408C315.023 104.669 315.105 107.181 315.38 109.591C315.838 113.445 316.735 117.234 318.054 120.885" fill="#2F2E41"/>
<path d="M415.108 55.0542L222.025 99.561C221.077 99.7784 220.081 99.6114 219.256 99.0967C218.431 98.5819 217.844 97.7615 217.624 96.8153L206.567 48.9947C206.349 48.048 206.516 47.0537 207.032 46.23C207.547 45.4062 208.369 44.8202 209.317 44.6006L402.399 0.0937784C403.347 -0.1236 404.343 0.0434015 405.168 0.558144C405.993 1.07289 406.58 1.89334 406.8 2.83954L417.858 50.6601C418.075 51.6068 417.908 52.6011 417.393 53.4249C416.877 54.2486 416.055 54.8346 415.108 55.0542Z" fill="white"/>
<path d="M415.108 55.0542L222.025 99.561C221.077 99.7784 220.081 99.6114 219.256 99.0967C218.431 98.5819 217.844 97.7615 217.624 96.8153L206.567 48.9947C206.349 48.048 206.516 47.0537 207.032 46.23C207.547 45.4062 208.369 44.8202 209.317 44.6006L402.399 0.0937784C403.347 -0.1236 404.343 0.0434015 405.168 0.558144C405.993 1.07289 406.58 1.89334 406.8 2.83954L417.858 50.6601C418.075 51.6068 417.908 52.6011 417.393 53.4249C416.877 54.2486 416.055 54.8346 415.108 55.0542ZM209.647 46.0289C209.078 46.1607 208.585 46.5123 208.276 47.0066C207.967 47.5009 207.866 48.0976 207.997 48.6657L219.054 96.4863C219.186 97.0542 219.538 97.5466 220.034 97.8555C220.529 98.1644 221.126 98.2646 221.695 98.1339L414.778 53.6271C415.346 53.4954 415.84 53.1439 416.149 52.6495C416.458 52.1551 416.559 51.5584 416.428 50.9903L405.37 3.16913C405.238 2.60124 404.886 2.10877 404.391 1.79986C403.896 1.49094 403.298 1.39082 402.729 1.52146L209.647 46.0289Z" fill="#E6E6E6"/>
<path d="M276.645 45.8812C276.326 45.954 276.024 46.0889 275.758 46.2781C275.491 46.4673 275.264 46.7071 275.09 46.9839C274.916 47.2606 274.798 47.5689 274.744 47.891C274.689 48.2132 274.699 48.5429 274.772 48.8614C274.845 49.1799 274.98 49.4809 275.17 49.7472C275.359 50.0135 275.599 50.2399 275.877 50.4135C276.154 50.5871 276.463 50.7044 276.785 50.7588C277.108 50.8132 277.438 50.8036 277.757 50.7306L277.766 50.7286L392.205 24.3496C392.848 24.2003 393.405 23.8024 393.755 23.2432C394.104 22.684 394.217 22.0093 394.068 21.3671C393.92 20.725 393.522 20.1679 392.963 19.8182C392.403 19.4685 391.728 19.3548 391.084 19.5021L276.645 45.8812Z" fill="#E6E6E6"/>
<path d="M280.008 60.4241C279.689 60.4969 279.387 60.6318 279.12 60.821C278.854 61.0102 278.627 61.25 278.453 61.5268C278.279 61.8035 278.161 62.1118 278.107 62.4339C278.052 62.7561 278.061 63.0858 278.135 63.4043C278.208 63.7228 278.343 64.0238 278.532 64.2901C278.722 64.5564 278.962 64.7828 279.24 64.9564C279.517 65.13 279.826 65.2473 280.148 65.3017C280.471 65.3561 280.801 65.3465 281.12 65.2734L281.129 65.2715L330.372 53.9205C331.016 53.7731 331.575 53.3763 331.926 52.8175C332.277 52.2587 332.391 51.5836 332.243 50.9407C332.096 50.2978 331.699 49.7396 331.139 49.389C330.58 49.0385 329.904 48.9241 329.26 49.0711L329.251 49.0731L280.008 60.4241Z" fill="#E6E6E6"/>
<path d="M245.36 78.1135C253.615 78.1135 260.308 71.4314 260.308 63.1886C260.308 54.9458 253.615 48.2637 245.36 48.2637C237.104 48.2637 230.411 54.9458 230.411 63.1886C230.411 71.4314 237.104 78.1135 245.36 78.1135Z" fill="#9D78BD"/>
<path d="M244.939 71.7985C244.45 71.912 243.937 71.8636 243.478 71.6607L243.449 71.648L237.434 68.9217C237.155 68.7954 236.903 68.6153 236.694 68.3918C236.484 68.1683 236.321 67.9057 236.213 67.6191C236.105 67.3326 236.055 67.0276 236.066 66.7216C236.076 66.4157 236.147 66.1148 236.274 65.8361C236.401 65.5574 236.581 65.3065 236.805 65.0976C237.03 64.8887 237.293 64.726 237.58 64.6188C237.867 64.5116 238.173 64.4619 238.479 64.4727C238.785 64.4835 239.087 64.5544 239.366 64.6816L243.263 66.4531L248.731 54.4576C248.987 53.896 249.456 53.4589 250.035 53.2425C250.614 53.0261 251.255 53.0481 251.817 53.3036L251.784 53.382L251.819 53.3032C252.381 53.5595 252.819 54.028 253.035 54.6058C253.252 55.1837 253.23 55.8237 252.974 56.3855L246.544 70.4966C246.395 70.8217 246.173 71.1082 245.895 71.3337C245.617 71.5593 245.291 71.7179 244.941 71.7974L244.939 71.7985Z" fill="white"/>
</g>
<defs>
<clipPath id="clip0_25_87">
<rect width="666" height="318" fill="white"/>
</clipPath>
</defs>
</svg>
