<svg width="79" height="79" viewBox="0 0 79 79" fill="none" xmlns="http://www.w3.org/2000/svg">
<path d="M55.2307 54.1631L53.5381 55.7415L48.5141 50.355L46.7305 48.4417L48.4231 46.8633L50.2068 48.7766L55.2307 54.1631Z" fill="#78909C"/>
<path d="M50.2068 48.7762C49.9368 49.0493 49.659 49.3177 49.3767 49.5816C49.0943 49.8454 48.8058 50.1046 48.5141 50.3531L46.7305 48.4398L48.4277 46.8613L50.2068 48.7762ZM55.5022 54.4157C55.2322 54.6888 54.9545 54.9573 54.6721 55.2211C54.3898 55.485 54.1012 55.7442 53.8096 55.9926L52.0259 54.0793L53.7232 52.5009L55.5022 54.4157Z" fill="#465E66"/>
<path d="M57.2301 29.0402C57.0339 34.5608 55.2061 39.8994 51.9776 44.3817C48.749 48.8641 44.2646 52.2891 39.0906 54.2243C33.9166 56.1595 28.2852 56.5179 22.9076 55.2544C17.53 53.9909 12.6474 51.1622 8.87659 47.1254C3.82309 41.7061 1.129 34.5015 1.38681 27.0961C1.64462 19.6907 4.83323 12.6909 10.2514 7.63616C21.515 -2.87145 39.2314 -2.25581 49.739 9.01095C52.2502 11.6882 54.2053 14.8371 55.4911 18.2751C56.777 21.7132 57.3681 25.3722 57.2301 29.0402Z" fill="#546E7A"/>
<path d="M52.0121 28.869C51.8078 34.7499 49.3293 40.322 45.0985 44.4117C40.8677 48.5015 35.2148 50.7898 29.3304 50.7946C29.0619 50.7946 28.7919 50.79 28.5204 50.7807C27.1096 50.7322 25.7063 50.554 24.3281 50.2484C21.7041 49.6652 19.2061 48.6158 16.9527 47.1501C15.3954 46.1349 13.9674 44.9338 12.7003 43.5735C8.63809 39.16 6.48648 33.3189 6.71499 27.3248C6.9435 21.3308 9.53359 15.6705 13.92 11.579C18.3065 7.48757 24.1332 5.29719 30.1286 5.48586C36.124 5.67454 41.8015 8.22694 45.922 12.5861C46.8301 13.5591 47.652 14.6092 48.3784 15.7245C49.8455 17.9759 50.8965 20.4724 51.4813 23.0953C51.9028 24.9895 52.0812 26.9297 52.0121 28.869Z" fill="#90CAF9"/>
<path d="M36.8229 15.9171C33.1518 13.8335 28.8034 13.293 24.7339 14.4145C20.6643 15.536 17.2067 18.2276 15.1211 21.8977" stroke="white" stroke-width="15" stroke-linecap="round" stroke-linejoin="round"/>
<path d="M76.1024 77.5467C75.1471 78.4411 73.8868 78.9377 72.5782 78.9353H72.3946C71.7173 78.914 71.0509 78.7588 70.4338 78.4786C69.8168 78.1984 69.2613 77.7988 68.7995 77.3029L49.7932 57.6532L57.3538 50.5972L76.357 70.2361C77.2905 71.2403 77.7878 72.5737 77.7401 73.944C77.6924 75.3143 77.1035 76.6098 76.1024 77.5467Z" fill="#5E35B1"/>
<path d="M76.7751 76.7813C76.2973 77.4487 75.6675 77.9928 74.9376 78.3684C74.2078 78.744 73.399 78.9405 72.5782 78.9414H72.3946C71.7168 78.9193 71.0502 78.7631 70.4331 78.4819C69.816 78.2006 69.2608 77.7999 68.7995 77.3028L49.7932 57.6531L51.0183 56.5098L69.9845 76.1147C70.4462 76.6109 71.0016 77.0108 71.6187 77.2913C72.2357 77.5717 72.9022 77.7272 73.5796 77.7487H73.7632C74.844 77.7513 75.898 77.4128 76.7751 76.7813Z" fill="#4A2A96"/>
<path d="M57.2473 52.9238L75.1442 70.8207" stroke="white" stroke-width="3" stroke-linecap="round" stroke-linejoin="round"/>
<path d="M47.1931 11.3995C42.7593 6.69752 36.6445 3.94186 30.185 3.73474C23.7255 3.52763 17.4467 5.88591 12.7208 10.2942C7.99486 14.7025 5.20609 20.8023 4.96396 27.2605C4.72184 33.7188 7.04605 40.0103 11.4287 44.76C13.6135 47.115 16.2438 49.0133 19.1672 50.345C22.0906 51.6767 25.2492 52.4153 28.4599 52.5181C28.7516 52.5289 29.0416 52.5335 29.3317 52.5335C34.094 52.5292 38.7514 51.1345 42.7322 48.5206C46.713 45.9067 49.844 42.1874 51.7408 37.8191C53.6376 33.4509 54.2176 28.6239 53.4098 23.9306C52.6019 19.2374 50.4413 14.8821 47.1931 11.3995ZM52.0118 28.869C51.8076 34.7498 49.329 40.3219 45.0982 44.4117C40.8674 48.5014 35.2146 50.7897 29.3302 50.7946C29.0617 50.7946 28.7917 50.7899 28.5201 50.7807C24.0319 50.6211 19.6917 49.135 16.0475 46.5102C12.4034 43.8853 9.61889 40.2394 8.04564 36.0329C6.47238 31.8265 6.18097 27.2481 7.20821 22.8761C8.23545 18.5041 10.5353 14.5346 13.8172 11.4689C17.1023 8.40424 21.2225 6.38259 25.6566 5.65966C30.0907 4.93673 34.6397 5.545 38.7281 7.40754C42.8166 9.27007 46.2608 12.3032 48.6253 16.1233C50.9898 19.9435 52.1683 24.379 52.0118 28.869Z" fill="#546E7A"/>
<path d="M47.1931 11.3995C42.7593 6.69752 36.6445 3.94186 30.185 3.73474C23.7255 3.52763 17.4467 5.88591 12.7208 10.2942C7.99486 14.7025 5.20609 20.8023 4.96396 27.2605C4.72184 33.7188 7.04605 40.0103 11.4287 44.76C13.6135 47.115 16.2438 49.0133 19.1672 50.345C22.0906 51.6767 25.2492 52.4153 28.4599 52.5181C28.7516 52.5289 29.0416 52.5335 29.3317 52.5335C34.094 52.5292 38.7514 51.1345 42.7322 48.5206C46.713 45.9067 49.844 42.1874 51.7408 37.8191C53.6376 33.4509 54.2176 28.6239 53.4098 23.9306C52.6019 19.2374 50.4413 14.8821 47.1931 11.3995ZM52.0118 28.869C51.8076 34.7498 49.329 40.3219 45.0982 44.4117C40.8674 48.5014 35.2146 50.7897 29.3302 50.7946C29.0617 50.7946 28.7917 50.7899 28.5201 50.7807C24.0319 50.6211 19.6917 49.135 16.0475 46.5102C12.4034 43.8853 9.61889 40.2394 8.04564 36.0329C6.47238 31.8265 6.18097 27.2481 7.20821 22.8761C8.23545 18.5041 10.5353 14.5346 13.8172 11.4689C17.1023 8.40424 21.2225 6.38259 25.6566 5.65966C30.0907 4.93673 34.6397 5.545 38.7281 7.40754C42.8166 9.27007 46.2608 12.3032 48.6253 16.1233C50.9898 19.9435 52.1683 24.379 52.0118 28.869Z" fill="#465E66"/>
</svg>
